<svg xmlns="http://www.w3.org/2000/svg" width="880.0" height="504.0" viewBox="0 0 880.0 504.0" role="img" aria-label="What people actually ask models to do">
<title>What people actually ask models to do</title>
<desc>Ranked bar chart of OpenRouter token share by task.</desc>
<rect width="880.0" height="504.0" fill="#fcfcfb"/>
<text x="24.0" y="30.0" font-family='system-ui, -apple-system, "Segoe UI", sans-serif' font-size="16" fill="#0b0b0b" text-anchor="start" font-weight="600" style="">What people actually ask models to do</text>
<text x="24.0" y="50.0" font-family='system-ui, -apple-system, "Segoe UI", sans-serif' font-size="12" fill="#52514e" text-anchor="start" font-weight="normal" style="">share of all tokens on OpenRouter · trailing 7 days to 2026-08-31</text>
<text x="24.0" y="72.0" font-family='system-ui, -apple-system, "Segoe UI", sans-serif' font-size="12" fill="#52514e" text-anchor="start" font-weight="600" style="">Code 37% · Agent 35% · General 22% · Data 6%</text>
<circle cx="29.0" cy="92" r="5" fill="#2a78d6"/>
<text x="39.0" y="96.0" font-family='system-ui, -apple-system, "Segoe UI", sans-serif' font-size="11" fill="#52514e" text-anchor="start" font-weight="normal" style="">Code</text>
<circle cx="88.4" cy="92" r="5" fill="#eb6834"/>
<text x="98.4" y="96.0" font-family='system-ui, -apple-system, "Segoe UI", sans-serif' font-size="11" fill="#52514e" text-anchor="start" font-weight="normal" style="">Agent</text>
<circle cx="154.4" cy="92" r="5" fill="#1baf7a"/>
<text x="164.4" y="96.0" font-family='system-ui, -apple-system, "Segoe UI", sans-serif' font-size="11" fill="#52514e" text-anchor="start" font-weight="normal" style="">General</text>
<circle cx="233.6" cy="92" r="5" fill="#4a3aa7"/>
<text x="243.6" y="96.0" font-family='system-ui, -apple-system, "Segoe UI", sans-serif' font-size="11" fill="#52514e" text-anchor="start" font-weight="normal" style="">Data</text>
<line x1="250.0" y1="98.0" x2="250.0" y2="472.0" stroke="#c3c2b7" stroke-width="1"/>
<line x1="250.0" y1="98.0" x2="250.0" y2="472.0" stroke="#e1e0d9" stroke-width="1"/>
<text x="250.0" y="486.0" font-family='system-ui, -apple-system, "Segoe UI", sans-serif' font-size="10" fill="#898781" text-anchor="middle" font-weight="normal" style="font-variant-numeric: tabular-nums;">0%</text>
<line x1="362.8" y1="98.0" x2="362.8" y2="472.0" stroke="#e1e0d9" stroke-width="1"/>
<text x="362.8" y="486.0" font-family='system-ui, -apple-system, "Segoe UI", sans-serif' font-size="10" fill="#898781" text-anchor="middle" font-weight="normal" style="font-variant-numeric: tabular-nums;">5%</text>
<line x1="475.5" y1="98.0" x2="475.5" y2="472.0" stroke="#e1e0d9" stroke-width="1"/>
<text x="475.5" y="486.0" font-family='system-ui, -apple-system, "Segoe UI", sans-serif' font-size="10" fill="#898781" text-anchor="middle" font-weight="normal" style="font-variant-numeric: tabular-nums;">10%</text>
<line x1="588.3" y1="98.0" x2="588.3" y2="472.0" stroke="#e1e0d9" stroke-width="1"/>
<text x="588.3" y="486.0" font-family='system-ui, -apple-system, "Segoe UI", sans-serif' font-size="10" fill="#898781" text-anchor="middle" font-weight="normal" style="font-variant-numeric: tabular-nums;">15%</text>
<line x1="701.1" y1="98.0" x2="701.1" y2="472.0" stroke="#e1e0d9" stroke-width="1"/>
<text x="701.1" y="486.0" font-family='system-ui, -apple-system, "Segoe UI", sans-serif' font-size="10" fill="#898781" text-anchor="middle" font-weight="normal" style="font-variant-numeric: tabular-nums;">20%</text>
<path d="M250.0,108.0 h526.0 q4,0 4,4 v8.0 q0,4 -4,4 h-526.0 z" fill="#eb6834"/>
<text x="240.0" y="120.0" font-family='system-ui, -apple-system, "Segoe UI", sans-serif' font-size="11" fill="#52514e" text-anchor="end" font-weight="normal" style="">Agent · Workflow execution</text>
<text x="787.0" y="120.0" font-family='system-ui, -apple-system, "Segoe UI", sans-serif' font-size="11" fill="#0b0b0b" text-anchor="start" font-weight="600" style="font-variant-numeric: tabular-nums;">23.5%</text>
<path d="M250.0,132.0 h277.9 q4,0 4,4 v8.0 q0,4 -4,4 h-277.9 z" fill="#2a78d6"/>
<text x="240.0" y="144.0" font-family='system-ui, -apple-system, "Segoe UI", sans-serif' font-size="11" fill="#52514e" text-anchor="end" font-weight="normal" style="">Code · General impl</text>
<text x="538.9" y="144.0" font-family='system-ui, -apple-system, "Segoe UI", sans-serif' font-size="11" fill="#0b0b0b" text-anchor="start" font-weight="600" style="font-variant-numeric: tabular-nums;">12.5%</text>
<path d="M250.0,156.0 h169.7 q4,0 4,4 v8.0 q0,4 -4,4 h-169.7 z" fill="#2a78d6"/>
<text x="240.0" y="168.0" font-family='system-ui, -apple-system, "Segoe UI", sans-serif' font-size="11" fill="#52514e" text-anchor="end" font-weight="normal" style="">Code · Debugging</text>
<text x="430.7" y="168.0" font-family='system-ui, -apple-system, "Segoe UI", sans-serif' font-size="11" fill="#0b0b0b" text-anchor="start" font-weight="600" style="font-variant-numeric: tabular-nums;">7.7%</text>
<path d="M250.0,180.0 h156.1 q4,0 4,4 v8.0 q0,4 -4,4 h-156.1 z" fill="#eb6834"/>
<text x="240.0" y="192.0" font-family='system-ui, -apple-system, "Segoe UI", sans-serif' font-size="11" fill="#52514e" text-anchor="end" font-weight="normal" style="">Agent · Multi step planning</text>
<text x="417.1" y="192.0" font-family='system-ui, -apple-system, "Segoe UI", sans-serif' font-size="11" fill="#0b0b0b" text-anchor="start" font-weight="600" style="font-variant-numeric: tabular-nums;">7.1%</text>
<path d="M250.0,204.0 h120.0 q4,0 4,4 v8.0 q0,4 -4,4 h-120.0 z" fill="#1baf7a"/>
<text x="240.0" y="216.0" font-family='system-ui, -apple-system, "Segoe UI", sans-serif' font-size="11" fill="#52514e" text-anchor="end" font-weight="normal" style="">Classification tagging</text>
<text x="381.0" y="216.0" font-family='system-ui, -apple-system, "Segoe UI", sans-serif' font-size="11" fill="#0b0b0b" text-anchor="start" font-weight="600" style="font-variant-numeric: tabular-nums;">5.5%</text>
<path d="M250.0,228.0 h115.5 q4,0 4,4 v8.0 q0,4 -4,4 h-115.5 z" fill="#2a78d6"/>
<text x="240.0" y="240.0" font-family='system-ui, -apple-system, "Segoe UI", sans-serif' font-size="11" fill="#52514e" text-anchor="end" font-weight="normal" style="">Code · File read write</text>
<text x="376.5" y="240.0" font-family='system-ui, -apple-system, "Segoe UI", sans-serif' font-size="11" fill="#0b0b0b" text-anchor="start" font-weight="600" style="font-variant-numeric: tabular-nums;">5.3%</text>
<path d="M250.0,252.0 h84.0 q4,0 4,4 v8.0 q0,4 -4,4 h-84.0 z" fill="#4a3aa7"/>
<text x="240.0" y="264.0" font-family='system-ui, -apple-system, "Segoe UI", sans-serif' font-size="11" fill="#52514e" text-anchor="end" font-weight="normal" style="">Data · Extraction</text>
<text x="345.0" y="264.0" font-family='system-ui, -apple-system, "Segoe UI", sans-serif' font-size="11" fill="#0b0b0b" text-anchor="start" font-weight="600" style="font-variant-numeric: tabular-nums;">3.9%</text>
<path d="M250.0,276.0 h79.4 q4,0 4,4 v8.0 q0,4 -4,4 h-79.4 z" fill="#1baf7a"/>
<text x="240.0" y="288.0" font-family='system-ui, -apple-system, "Segoe UI", sans-serif' font-size="11" fill="#52514e" text-anchor="end" font-weight="normal" style="">Roleplay fiction</text>
<text x="340.4" y="288.0" font-family='system-ui, -apple-system, "Segoe UI", sans-serif' font-size="11" fill="#0b0b0b" text-anchor="start" font-weight="600" style="font-variant-numeric: tabular-nums;">3.7%</text>
<path d="M250.0,300.0 h72.7 q4,0 4,4 v8.0 q0,4 -4,4 h-72.7 z" fill="#2a78d6"/>
<text x="240.0" y="312.0" font-family='system-ui, -apple-system, "Segoe UI", sans-serif' font-size="11" fill="#52514e" text-anchor="end" font-weight="normal" style="">Code · Frontend ui</text>
<text x="333.7" y="312.0" font-family='system-ui, -apple-system, "Segoe UI", sans-serif' font-size="11" fill="#0b0b0b" text-anchor="start" font-weight="600" style="font-variant-numeric: tabular-nums;">3.4%</text>
<path d="M250.0,324.0 h72.7 q4,0 4,4 v8.0 q0,4 -4,4 h-72.7 z" fill="#2a78d6"/>
<text x="240.0" y="336.0" font-family='system-ui, -apple-system, "Segoe UI", sans-serif' font-size="11" fill="#52514e" text-anchor="end" font-weight="normal" style="">Code · Shell execution</text>
<text x="333.7" y="336.0" font-family='system-ui, -apple-system, "Segoe UI", sans-serif' font-size="11" fill="#0b0b0b" text-anchor="start" font-weight="600" style="font-variant-numeric: tabular-nums;">3.4%</text>
<path d="M250.0,348.0 h70.4 q4,0 4,4 v8.0 q0,4 -4,4 h-70.4 z" fill="#1baf7a"/>
<text x="240.0" y="360.0" font-family='system-ui, -apple-system, "Segoe UI", sans-serif' font-size="11" fill="#52514e" text-anchor="end" font-weight="normal" style="">Conversational reply</text>
<text x="331.4" y="360.0" font-family='system-ui, -apple-system, "Segoe UI", sans-serif' font-size="11" fill="#0b0b0b" text-anchor="start" font-weight="600" style="font-variant-numeric: tabular-nums;">3.3%</text>
<path d="M250.0,372.0 h50.1 q4,0 4,4 v8.0 q0,4 -4,4 h-50.1 z" fill="#2a78d6"/>
<text x="240.0" y="384.0" font-family='system-ui, -apple-system, "Segoe UI", sans-serif' font-size="11" fill="#52514e" text-anchor="end" font-weight="normal" style="">Code · Review security</text>
<text x="311.1" y="384.0" font-family='system-ui, -apple-system, "Segoe UI", sans-serif' font-size="11" fill="#0b0b0b" text-anchor="start" font-weight="600" style="font-variant-numeric: tabular-nums;">2.4%</text>
<path d="M250.0,396.0 h50.1 q4,0 4,4 v8.0 q0,4 -4,4 h-50.1 z" fill="#1baf7a"/>
<text x="240.0" y="408.0" font-family='system-ui, -apple-system, "Segoe UI", sans-serif' font-size="11" fill="#52514e" text-anchor="end" font-weight="normal" style="">Qa knowledge</text>
<text x="311.1" y="408.0" font-family='system-ui, -apple-system, "Segoe UI", sans-serif' font-size="11" fill="#0b0b0b" text-anchor="start" font-weight="600" style="font-variant-numeric: tabular-nums;">2.4%</text>
<path d="M250.0,420.0 h45.6 q4,0 4,4 v8.0 q0,4 -4,4 h-45.6 z" fill="#1baf7a"/>
<text x="240.0" y="432.0" font-family='system-ui, -apple-system, "Segoe UI", sans-serif' font-size="11" fill="#52514e" text-anchor="end" font-weight="normal" style="">Content writing</text>
<text x="306.6" y="432.0" font-family='system-ui, -apple-system, "Segoe UI", sans-serif' font-size="11" fill="#0b0b0b" text-anchor="start" font-weight="600" style="font-variant-numeric: tabular-nums;">2.2%</text>
<path d="M250.0,444.0 h38.9 q4,0 4,4 v8.0 q0,4 -4,4 h-38.9 z" fill="#eb6834"/>
<text x="240.0" y="456.0" font-family='system-ui, -apple-system, "Segoe UI", sans-serif' font-size="11" fill="#52514e" text-anchor="end" font-weight="normal" style="">Agent · Memory extraction</text>
<text x="299.9" y="456.0" font-family='system-ui, -apple-system, "Segoe UI", sans-serif' font-size="11" fill="#0b0b0b" text-anchor="start" font-weight="600" style="font-variant-numeric: tabular-nums;">1.9%</text>
<text x="24.0" y="500.0" font-family='system-ui, -apple-system, "Segoe UI", sans-serif' font-size="10" fill="#898781" text-anchor="start" font-weight="normal" style="">Source: OpenRouter (openrouter.ai/rankings), as of 2026-08-31. Licensed under CC BY 4.0.</text>
</svg>
